<svg xmlns="http://www.w3.org/2000/svg" xmlns:xlink="http://www.w3.org/1999/xlink" version="1.1" width="1000" height="1000" viewBox="0 0 1000 1000" xml:space="preserve">
<desc>Created with Fabric.js 3.5.0</desc>
<defs>
</defs>
<rect x="0" y="0" width="100%" height="100%" fill="#fff"/>
<g transform="matrix(12.6071 0 0 12.3168 504.284 492.672)" id="358705">
<g style="" vector-effect="non-scaling-stroke">
		<g transform="matrix(1 0 0 1 -4.9 5.1)" id="Layer_3">
<polygon style="stroke: none; stroke-width: 1; stroke-dasharray: none; stroke-linecap: butt; stroke-dashoffset: 0; stroke-linejoin: miter; stroke-miterlimit: 4; is-custom-font: none; font-file-url: none; fill: rgb(109,149,255); fill-rule: nonzero; opacity: 1;" points="26.7,26.7 -26.7,26.7 -26.7,-26.7 0,-26.7 0,-29.7 -29.7,-29.7 -29.7,29.7 29.7,29.7 29.7,-3.6 26.7,-3.6 "/>
</g>
		<g transform="matrix(1 0 0 1 7.6 -7.75)" id="Layer_3">
<path style="stroke: none; stroke-width: 1; stroke-dasharray: none; stroke-linecap: butt; stroke-dashoffset: 0; stroke-linejoin: miter; stroke-miterlimit: 4; is-custom-font: none; font-file-url: none; fill: rgb(109,149,255); fill-rule: nonzero; opacity: 1;" transform=" translate(-47.6, -32.25)" d="M 22.6 46.2 l -2.1 13.1 l 13.1 -2.1 l 1.3 -1.4 l 0 0 l 39.8 -39.7 L 63.7 5.2 L 24 44.9 L 22.6 46.2 z M 25.3 48.3 l 6.1 6.2 L 24 55.7 L 25.3 48.3 z M 70.4 16.1 l -3.9 4 l -6.6 -6.7 l 4 -3.9 L 70.4 16.1 z M 57.7 15.5 l 6.7 6.7 L 33.8 52.7 L 27.2 46 L 57.7 15.5 z" stroke-linecap="round"/>
</g>
</g>
</g>
</svg>